<svg width="24" height="18" viewBox="0 0 24 18" fill="none" xmlns="http://www.w3.org/2000/svg">
<path d="M23.6898 0.287025C23.6873 0.280483 23.6914 0.273941 23.6889 0.267399C23.6881 0.264946 23.6857 0.264128 23.6849 0.262493C23.6579 0.192985 23.6113 0.137379 23.554 0.0924039C23.5409 0.0817734 23.5287 0.0744138 23.5139 0.0654187C23.4526 0.0278029 23.3839 0 23.3054 0H0.408867C0.330365 0 0.261675 0.0278029 0.200345 0.0654187C0.185626 0.0744138 0.17336 0.0817734 0.161094 0.0924039C0.103852 0.137379 0.0564236 0.192985 0.0302561 0.262493C0.0286206 0.264128 0.0261675 0.264946 0.0253498 0.267399C0.0228966 0.273941 0.0269852 0.280483 0.024532 0.287025C0.012266 0.326276 0 0.365527 0 0.408867V16.7636C0 16.9892 0.183172 17.1724 0.408867 17.1724H23.3054C23.5311 17.1724 23.7143 16.9892 23.7143 16.7636V0.408867C23.7143 0.365527 23.702 0.326276 23.6898 0.287025ZM22.1998 0.817734L11.8571 9.68279L1.51444 0.817734H22.1998ZM0.817734 16.3547V1.29774L11.5914 10.5324C11.6674 10.5978 11.7623 10.6305 11.8571 10.6305C11.952 10.6305 12.0469 10.5978 12.1229 10.5316L22.8966 1.29774V16.3547H0.817734Z" fill="white" fill-opacity="0.7"/>
</svg>
