<svg width="21" height="21" viewBox="0 0 21 21" fill="none" xmlns="http://www.w3.org/2000/svg">
<path d="M10.7032 20C16.7032 19.6586 20.9039 15.0039 19.833 8.81914C18.9611 3.78343 14.133 0.410654 9.25004 1.08592C4.30002 1.7704 0.492407 6.45734 1.05526 11.5561C1.58929 16.1491 4.35277 18.2963 6.65797 19.2661C7.19464 19.4919 7.91594 19.8213 8.15963 19.7679C8.40332 19.7146 8.32513 18.3331 8.32513 17.6672C6.82319 17.9032 6.30924 17.2986 5.99008 16.9413C5.62802 16.5361 5.41512 16.1195 5.04545 15.5077C4.67578 14.8959 4.00695 15.0398 3.93655 14.6859C3.86614 14.3319 5.34462 14.4279 6.40659 15.7656C7.1752 16.7393 7.99564 16.4459 8.43655 16.1675C8.45101 16.0128 8.48593 15.8052 8.57154 15.5736C8.66232 15.3282 8.91183 15.1798 8.87268 15.0118C8.83354 14.8438 6.82591 14.9564 5.68105 13.3162C4.85414 12.1316 4.8241 10.7293 5.14908 9.6853C5.36705 8.98498 5.73071 8.4911 5.97825 8.20568C5.88335 7.99819 5.74235 7.61938 5.73578 7.12598C5.72865 6.59343 5.88166 6.18583 5.97825 5.97431C6.30605 5.98429 6.77991 6.03611 7.31592 6.23027C7.8293 6.41617 8.21643 6.66618 8.47363 6.86206C8.94064 6.70169 9.62055 6.52721 10.4527 6.51013C11.4041 6.49064 12.1747 6.6847 12.6744 6.854C12.9199 6.6298 13.3303 6.31194 13.9104 6.09418C14.3318 5.93601 14.71 5.88025 14.9899 5.86221C15.0972 6.06999 15.2786 6.48786 15.2872 7.04575C15.2952 7.5593 15.1533 7.95462 15.0604 8.16518C15.3295 8.49715 15.7545 9.11291 15.9524 9.98819C16.0229 10.3 16.4083 12.0018 15.2956 13.4663C14.1309 14.9993 12.1923 14.7642 12.1048 14.9759C12.0173 15.1876 12.4769 15.5803 12.693 16.4037C12.9091 17.2271 12.8175 18.801 12.8175 18.801" stroke="white" stroke-opacity="0.7" stroke-width="0.929239" stroke-miterlimit="10" stroke-linecap="round" stroke-linejoin="round"/>
</svg>
