<svg width="17" height="17" viewBox="0 0 17 17" fill="none" xmlns="http://www.w3.org/2000/svg">
<path d="M10.4479 6.76458C8.7125 6.76458 7.72083 7.96167 7.72083 9.93083V12.835H8.14583V9.93083C8.14583 8.38667 9.04542 7.47292 10.37 7.47292C12.0417 7.47292 12.0417 8.925 12.0417 9.57667V12.835H12.75V9.57667C12.75 7.58625 11.8929 6.76458 10.4479 6.76458ZM4.60417 12.835H5.3125V6.90625H4.60417V12.835ZM7.4375 12.835H8.14583V6.90625H7.4375V12.835ZM4.95833 5.66667C4.56875 5.66667 4.25 5.34792 4.25 4.95833C4.25 4.56875 4.56875 4.25 4.95833 4.25C5.34792 4.25 5.66667 4.56875 5.66667 4.95833C5.66667 5.34792 5.34792 5.66667 4.95833 5.66667ZM15.555 0H1.445C0.609167 0 0 0.609165 0 1.445V15.555C0 16.3908 0.609167 17 1.445 17H15.555C16.3908 17 17 16.3908 17 15.555V1.445C17 0.609165 16.3908 0 15.555 0ZM16.2917 1.43083V15.5692C16.2917 15.9871 15.9871 16.2917 15.5692 16.2917H1.43083C1.01292 16.2917 0.708333 15.9871 0.708333 15.5692V1.43083C0.708333 1.01292 1.01292 0.708332 1.43083 0.708332H15.5692C15.9871 0.708332 16.2917 1.01292 16.2917 1.43083Z" fill="white" fill-opacity="0.7"/>
</svg>
