<svg width="14" height="21" viewBox="0 0 14 21" fill="none" xmlns="http://www.w3.org/2000/svg">
<path fill-rule="evenodd" clip-rule="evenodd" d="M6.94798 20.3156C6.86873 20.3156 6.78947 20.2628 6.73664 20.2099C6.73664 20.2099 5.04588 18.1229 3.38153 15.4546C1.13598 11.8882 0 9.0086 0 6.92157C0 3.11735 3.17018 0 6.9744 0C10.7786 0 13.896 3.09093 13.896 6.92157C13.896 11.4531 7.45867 19.8208 7.16162 20.2069L7.15933 20.2099C7.10649 20.2892 7.02724 20.3156 6.94798 20.3156ZM13.3412 6.92157C13.3412 3.40795 10.488 0.528364 6.94798 0.528364C3.40795 0.528364 0.528364 3.40795 0.528364 6.92157C0.528364 10.9573 5.30894 17.0199 6.76852 18.8709C6.84723 18.9707 6.91628 19.0583 6.9744 19.1327C8.11038 17.6532 13.3412 10.8315 13.3412 6.92157ZM6.94803 3.51362C8.71805 3.51362 10.1446 4.9402 10.1446 6.71022C10.1446 8.48024 8.71805 9.90682 6.94803 9.90682C5.17801 9.90682 3.75143 8.48024 3.75143 6.71022C3.75143 4.9402 5.17801 3.51362 6.94803 3.51362ZM6.92161 4.04198C5.46861 4.04198 4.25338 5.2308 4.25338 6.71022C4.25338 8.18964 5.46861 9.40488 6.94803 9.40488C8.42745 9.40488 9.58985 8.16322 9.58985 6.71022C9.58985 5.25722 8.37461 4.04198 6.92161 4.04198Z" fill="white"/>
</svg>
