<svg width="13" height="13" viewBox="0 0 13 13" fill="none" xmlns="http://www.w3.org/2000/svg">
<mask id="path-1-inside-1" fill="white">
<path fill-rule="evenodd" clip-rule="evenodd" d="M12.5 6.5C12.5 9.81371 9.81371 12.5 6.5 12.5C3.18629 12.5 0.5 9.81371 0.5 6.5C0.5 3.18629 3.18629 0.5 6.5 0.5C9.81371 0.5 12.5 3.18629 12.5 6.5ZM13 6.5C13 10.0899 10.0899 13 6.5 13C2.91015 13 0 10.0899 0 6.5C0 2.91015 2.91015 0 6.5 0C10.0899 0 13 2.91015 13 6.5ZM6.5 11C8.98528 11 11 8.98528 11 6.5C11 4.01472 8.98528 2 6.5 2C4.01472 2 2 4.01472 2 6.5C2 8.98528 4.01472 11 6.5 11Z"/>
</mask>
<path fill-rule="evenodd" clip-rule="evenodd" d="M12.5 6.5C12.5 9.81371 9.81371 12.5 6.5 12.5C3.18629 12.5 0.5 9.81371 0.5 6.5C0.5 3.18629 3.18629 0.5 6.5 0.5C9.81371 0.5 12.5 3.18629 12.5 6.5ZM13 6.5C13 10.0899 10.0899 13 6.5 13C2.91015 13 0 10.0899 0 6.5C0 2.91015 2.91015 0 6.5 0C10.0899 0 13 2.91015 13 6.5ZM6.5 11C8.98528 11 11 8.98528 11 6.5C11 4.01472 8.98528 2 6.5 2C4.01472 2 2 4.01472 2 6.5C2 8.98528 4.01472 11 6.5 11Z" fill="white"/>
<path d="M6.5 13C10.0899 13 13 10.0899 13 6.5H12C12 9.53757 9.53757 12 6.5 12V13ZM0 6.5C0 10.0899 2.91015 13 6.5 13V12C3.46243 12 1 9.53757 1 6.5H0ZM6.5 0C2.91015 0 0 2.91015 0 6.5H1C1 3.46243 3.46243 1 6.5 1V0ZM13 6.5C13 2.91015 10.0899 0 6.5 0V1C9.53757 1 12 3.46243 12 6.5H13ZM6.5 13.5C10.366 13.5 13.5 10.366 13.5 6.5H12.5C12.5 9.81371 9.81371 12.5 6.5 12.5V13.5ZM-0.5 6.5C-0.5 10.366 2.63401 13.5 6.5 13.5V12.5C3.18629 12.5 0.5 9.81371 0.5 6.5H-0.5ZM6.5 -0.5C2.63401 -0.5 -0.5 2.63401 -0.5 6.5H0.5C0.5 3.18629 3.18629 0.5 6.5 0.5V-0.5ZM13.5 6.5C13.5 2.63401 10.366 -0.5 6.5 -0.5V0.5C9.81371 0.5 12.5 3.18629 12.5 6.5H13.5ZM10.5 6.5C10.5 8.70914 8.70914 10.5 6.5 10.5V11.5C9.26142 11.5 11.5 9.26142 11.5 6.5H10.5ZM6.5 2.5C8.70914 2.5 10.5 4.29086 10.5 6.5H11.5C11.5 3.73858 9.26142 1.5 6.5 1.5V2.5ZM2.5 6.5C2.5 4.29086 4.29086 2.5 6.5 2.5V1.5C3.73858 1.5 1.5 3.73858 1.5 6.5H2.5ZM6.5 10.5C4.29086 10.5 2.5 8.70914 2.5 6.5H1.5C1.5 9.26142 3.73858 11.5 6.5 11.5V10.5Z" fill="white" mask="url(#path-1-inside-1)"/>
</svg>
