<svg width="25" height="25" viewBox="0 0 25 25" fill="none" xmlns="http://www.w3.org/2000/svg">
<path d="M22.9666 14.5183C23.0304 14.1855 23.0789 13.8504 23.1108 13.5139C23.142 13.1864 23.158 12.8482 23.158 12.4998C23.158 9.55691 21.965 6.89265 20.0364 4.96408C18.1077 3.03545 15.4432 1.84257 12.5003 1.84257C12.152 1.84257 11.814 1.85857 11.4867 1.88961C11.15 1.92156 10.8148 1.9699 10.4819 2.03359L10.3556 2.05778L10.2575 1.97229C9.10004 0.963424 7.64082 0.483737 6.19628 0.533723C4.76403 0.58328 3.34576 1.1554 2.25068 2.25053C1.15547 3.34552 0.583252 4.76381 0.53375 6.19615C0.48382 7.64061 0.963624 9.09977 1.97279 10.2574L2.05834 10.3555L2.03409 10.4818C1.97024 10.8145 1.92174 11.1495 1.88976 11.486C1.85864 11.8134 1.84259 12.1515 1.84259 12.4998C1.84259 15.4429 3.03556 18.1073 4.96414 20.0358C6.89284 21.9645 9.55738 23.1575 12.5003 23.1575C12.8487 23.1575 13.1869 23.1415 13.5145 23.1104C13.851 23.0784 14.1862 23.0299 14.5191 22.9661L14.6455 22.9418L14.7435 23.0274C15.9008 24.0364 17.3598 24.5162 18.8042 24.4662C20.2365 24.4167 21.6548 23.8446 22.75 22.7495C23.845 21.6545 24.4171 20.2361 24.4666 18.8037C24.5165 17.3592 24.0369 15.9001 23.0279 14.7427L22.9423 14.6445L22.9666 14.5182L22.9666 14.5183ZM23.6387 13.5638C23.6086 13.8797 23.566 14.1896 23.5114 14.4928C24.5543 15.7389 25.0495 17.2876 24.9965 18.8203C24.9424 20.3849 24.319 21.9327 23.1261 23.1256C21.933 24.3187 20.3853 24.9421 18.8208 24.9962C17.2881 25.0491 15.7396 24.5539 14.4936 23.5109C14.1902 23.5655 13.8803 23.6082 13.5643 23.6382C13.2078 23.672 12.8528 23.6895 12.5003 23.6895C9.41054 23.6895 6.61303 22.437 4.58801 20.412C2.56314 18.3871 1.31061 15.5898 1.31061 12.4998C1.31061 12.1474 1.32806 11.7925 1.36193 11.4362C1.39197 11.1202 1.43466 10.8104 1.48922 10.5073C0.446182 9.26095 -0.0491347 7.71225 0.00383859 6.17956C0.0579115 4.615 0.68138 3.06734 1.87454 1.87443C3.06756 0.681374 4.61518 0.0579827 6.17965 0.00384748C7.71244 -0.0491851 9.26116 0.446033 10.5074 1.48881C10.8108 1.43437 11.1207 1.3918 11.4368 1.36182C11.7931 1.32803 12.148 1.31061 12.5003 1.31061C15.59 1.31061 18.3875 2.56307 20.4125 4.58798C22.4374 6.61279 23.6899 9.41007 23.6899 12.4998C23.6899 12.8523 23.6725 13.2073 23.6386 13.5638L23.6387 13.5638ZM12.7085 19.4939C11.0437 19.4939 9.51334 19.1186 8.39771 18.5147C7.2365 17.8862 6.51105 17.0032 6.51105 16.0173C6.51105 15.5331 6.66082 15.0687 6.98255 14.7359C7.26695 14.4417 7.67641 14.2558 8.22291 14.2558C9.00206 14.2558 9.44578 14.707 9.94885 15.2185C10.5162 15.7955 11.1714 16.4617 12.5618 16.4617C13.1355 16.4617 13.5998 16.3414 13.9198 16.1419C14.214 15.9584 14.379 15.7074 14.379 15.4288C14.379 14.7744 13.7474 14.6177 12.7094 14.3602C12.5862 14.3297 12.5794 14.3283 12.5217 14.3138L12.5218 14.3134L10.4161 13.7993H10.415C9.33595 13.5326 8.37381 13.1739 7.6717 12.5624C6.95002 11.9339 6.51105 11.0552 6.51105 9.76714C6.51105 6.65588 9.54641 5.50574 12.1447 5.50574C13.6091 5.50574 15.0846 5.8119 16.1609 6.3476C17.1956 6.86257 17.8765 7.59611 17.8765 8.49218V8.49226C17.8765 8.97269 17.7112 9.42807 17.4095 9.76574C17.104 10.1077 16.6627 10.3261 16.1155 10.3261V10.3271H16.1154C15.3985 10.3271 15.0086 9.97614 14.5723 9.5834C14.1049 9.16265 13.5744 8.68503 12.4145 8.68503C11.8113 8.68503 11.3263 8.7659 11.0075 8.93664C10.7604 9.069 10.6216 9.26233 10.6216 9.52194C10.6216 9.82197 10.7715 10.0096 11.0237 10.1459C11.3345 10.3138 11.794 10.4197 12.325 10.5378H12.327L13.8217 10.8811C14.8631 11.1193 16.008 11.46 16.9043 12.0692C17.8342 12.7012 18.4895 13.6094 18.4895 14.9636C18.4895 16.3947 17.8537 17.4728 16.8869 18.2204C15.7732 19.0815 14.2197 19.4938 12.7085 19.4938L12.7085 19.4939ZM8.64915 18.0472C9.69136 18.6113 11.1318 18.9619 12.7085 18.9619C14.1128 18.9619 15.5471 18.5858 16.5627 17.8006C17.4041 17.15 17.9575 16.211 17.9575 14.9636C17.9575 13.8172 17.3993 13.046 16.6072 12.5076C15.7815 11.9465 14.6959 11.6256 13.7033 11.3985L12.2086 11.0552L12.2087 11.0548C11.6372 10.9276 11.1413 10.8128 10.7722 10.6134C10.3441 10.3821 10.0896 10.0551 10.0896 9.52194C10.0896 9.04552 10.3301 8.69838 10.7581 8.46911C11.1585 8.25465 11.7283 8.15306 12.4144 8.15306C13.7773 8.15306 14.3889 8.70361 14.9276 9.18859C15.2834 9.50889 15.6014 9.79518 16.1154 9.79518H16.1155V9.79622C16.4992 9.79622 16.8055 9.64665 17.0147 9.41249C17.2277 9.17399 17.3445 8.84488 17.3445 8.49226V8.49218C17.3445 7.82452 16.7807 7.24984 15.924 6.82346C14.9194 6.32345 13.5309 6.03771 12.1447 6.03771C9.79177 6.03771 7.04301 7.04427 7.04301 9.76714C7.04301 10.8807 7.4128 11.6319 8.02078 12.1614C8.64835 12.708 9.537 13.0357 10.5418 13.284L10.5417 13.2842L12.6484 13.7985H12.6505L12.8361 13.8449C14.1261 14.1649 14.911 14.3595 14.911 15.4288C14.911 15.8995 14.6556 16.3089 14.2003 16.5928C13.7992 16.8429 13.2377 16.9936 12.5618 16.9936C10.9506 16.9936 10.211 16.2417 9.57063 15.5905C9.15118 15.164 8.78123 14.7878 8.22289 14.7878C7.83384 14.7878 7.55202 14.9101 7.36489 15.1037C7.14526 15.3309 7.04301 15.6631 7.04301 16.0173C7.04301 16.7924 7.66059 17.5121 8.64913 18.0472L8.64915 18.0472Z" fill="white"/>
</svg>
