<svg width="27" height="23" viewBox="0 0 27 23" fill="none" xmlns="http://www.w3.org/2000/svg">
<path d="M26.8716 0.119056C26.7613 0.00976213 26.5974 -0.026669 26.4503 0.0196979L0.288677 8.41211C0.138207 8.46179 0.0278627 8.59095 0.00445631 8.74661C-0.0189501 8.90227 0.0512686 9.05793 0.181676 9.14736L6.33755 13.3303L7.63159 21.5936C7.63159 21.6035 7.63493 21.6134 7.63828 21.6201C7.63828 21.6234 7.63828 21.6267 7.64162 21.63C7.64496 21.6399 7.64831 21.6499 7.65165 21.6598C7.65165 21.6631 7.65499 21.6697 7.65834 21.673C7.66168 21.6797 7.66503 21.6863 7.66837 21.6929C7.67171 21.6962 7.67171 21.7029 7.67506 21.7062C7.6784 21.7128 7.68174 21.7194 7.68509 21.726C7.68843 21.7293 7.69178 21.736 7.69178 21.7393C7.69512 21.7459 7.70181 21.7525 7.70515 21.7592C7.7085 21.7625 7.7085 21.7658 7.71184 21.7691C7.71853 21.779 7.72856 21.789 7.73524 21.7989C7.73859 21.8022 7.73859 21.8022 7.74193 21.8055C7.74862 21.8121 7.75531 21.8188 7.762 21.8254L7.76534 21.8287C7.76868 21.8287 7.76868 21.832 7.77203 21.832C7.77871 21.8386 7.7854 21.842 7.79209 21.8486C7.79543 21.8519 7.79878 21.8552 7.80212 21.8552C7.80881 21.8585 7.8155 21.8651 7.82218 21.8684C7.82553 21.8718 7.82887 21.8718 7.83221 21.8751C7.84225 21.8817 7.84893 21.885 7.85896 21.8883C7.86565 21.8916 7.869 21.8949 7.87568 21.8949C7.88237 21.8983 7.88906 21.9016 7.89575 21.9049C7.90243 21.9082 7.90578 21.9082 7.91247 21.9115C7.91915 21.9148 7.92584 21.9148 7.92918 21.9181C7.93587 21.9181 7.93922 21.9214 7.9459 21.9214C7.95259 21.9214 7.95928 21.9247 7.96597 21.9247C7.97265 21.9247 7.976 21.9281 7.98268 21.9281C7.98603 21.9281 7.98937 21.9281 7.99271 21.9314C7.99606 21.9314 7.9994 21.9314 8.00275 21.9314C8.00943 21.9314 8.01278 21.9314 8.01946 21.9314C8.02615 21.9314 8.03284 21.9314 8.03953 21.9314C8.04287 21.9314 8.04622 21.9314 8.04956 21.9314C8.0529 21.9314 8.0529 21.9314 8.05625 21.9314C8.06628 21.9314 8.07631 21.9314 8.08634 21.9314C8.08968 21.9314 8.09303 21.9314 8.09637 21.9314C8.10975 21.9314 8.12312 21.9281 8.13315 21.9247C8.1365 21.9247 8.13984 21.9214 8.14318 21.9214C8.15322 21.9181 8.1599 21.9181 8.16993 21.9148C8.17662 21.9148 8.17997 21.9115 8.18665 21.9115C8.19334 21.9082 8.20003 21.9082 8.20672 21.9049C8.2134 21.9016 8.21675 21.9016 8.22344 21.8983C8.23347 21.8949 8.24016 21.8916 8.24684 21.885C8.25353 21.8817 8.26022 21.8784 8.26356 21.8751C8.27025 21.8718 8.27693 21.8651 8.28697 21.8618C8.29031 21.8585 8.297 21.8552 8.30034 21.8519C8.30703 21.8453 8.31372 21.842 8.3204 21.8353C8.32375 21.832 8.32709 21.8287 8.33044 21.8287C8.34047 21.8188 8.3505 21.8088 8.36053 21.7989L12.3965 17.4338L19.7293 22.4182C19.7996 22.4646 19.8832 22.4911 19.9667 22.4911C20.0136 22.4911 20.0604 22.4845 20.1038 22.4679C20.2309 22.4249 20.3279 22.3222 20.3647 22.1963L26.9853 0.526422C27.0254 0.387321 26.982 0.225037 26.8716 0.119056ZM23.802 1.73859L6.72877 12.5918L1.35534 8.9387L23.802 1.73859ZM10.3634 15.4665C10.3601 15.4698 10.3601 15.4731 10.3568 15.4731C10.3534 15.4764 10.3467 15.4831 10.3434 15.4864C10.3367 15.493 10.3334 15.4996 10.3267 15.5062C10.3233 15.5096 10.32 15.5162 10.3166 15.5195C10.3099 15.5261 10.3066 15.5361 10.2999 15.5427C10.2966 15.546 10.2932 15.5493 10.2932 15.5559C10.2865 15.5659 10.2832 15.5758 10.2799 15.5857C10.2799 15.589 10.2765 15.589 10.2765 15.5924L10.2732 15.599L8.2435 20.08L7.17684 13.2906L23.16 3.1329L10.3634 15.4665ZM9.48404 19.358L10.8316 16.3839L11.6943 16.9701L9.48404 19.358ZM19.7227 21.4213L11.3097 15.705L25.708 1.82801L19.7227 21.4213Z" fill="white"/>
</svg>
