<svg width="20" height="16" viewBox="0 0 20 16" fill="none" xmlns="http://www.w3.org/2000/svg">
<path d="M19.5844 4.09062C19.5844 4.09062 19.3937 2.74375 18.8062 2.15C18.0625 1.37187 17.2281 1.36875 16.8469 1.32188C14.1094 1.125 10.0031 1.125 10.0031 1.125H9.99375C9.99375 1.125 5.8875 1.125 3.15 1.32188C2.76875 1.36875 1.93438 1.37187 1.19062 2.15C0.603125 2.74375 0.4125 4.09062 0.4125 4.09062C0.4125 4.09062 0.21875 5.67188 0.21875 7.25625V8.74062C0.21875 10.3219 0.415625 11.9031 0.415625 11.9031C0.415625 11.9031 0.60625 13.25 1.19375 13.8438C1.9375 14.6219 2.91563 14.5969 3.35 14.6781C4.9125 14.8281 10 14.875 10 14.875C10 14.875 14.1094 14.8687 16.8469 14.6719C17.2281 14.625 18.0625 14.6219 18.8062 13.8438C19.3937 13.25 19.5844 11.9031 19.5844 11.9031C19.5844 11.9031 19.7812 10.3219 19.7812 8.74062V7.25625C19.7812 5.67188 19.5844 4.09062 19.5844 4.09062ZM7.98125 10.5344V5.04063L13.2656 7.79688L7.98125 10.5344Z" stroke="white" stroke-width="1.4" stroke-miterlimit="10"/>
</svg>
