<svg width="17" height="17" viewBox="0 0 17 17" fill="none" xmlns="http://www.w3.org/2000/svg">
<path d="M15.5833 0H1.41668C0.623322 0 0 0.623322 0 1.41668V15.5834C0 16.3767 0.623322 17 1.41668 17H7.93336H11.3334H15.5834C16.3767 17 17 16.3767 17 15.5833V1.41668C17 0.623322 16.3767 0 15.5833 0ZM8.5 16.4333V10.7667H6.23332V8.5H8.5V6.51668C8.5 4.90168 9.74668 3.54168 11.3333 3.4H13.8833V5.66668H11.6166C11.135 5.66668 10.7666 6.035 10.7666 6.51668V8.5H13.6V10.7667H10.7667V16.4334H8.5V16.4333ZM16.4333 15.5833C16.4333 16.065 16.065 16.4333 15.5833 16.4333H11.3333V11.3333H14.1666V7.93332H11.3333V6.51664C11.3333 6.34664 11.4466 6.23332 11.6166 6.23332H14.45V2.83332H11.305C9.40668 3.00332 7.93332 4.61832 7.93332 6.51664V7.93332H5.66664V11.3333H7.93332V16.4333H1.41668C0.935 16.4333 0.566678 16.065 0.566678 15.5833V1.41668C0.566678 0.935 0.935 0.566678 1.41668 0.566678H15.5834C16.065 0.566678 16.4334 0.935 16.4334 1.41668V15.5833H16.4333Z" fill="white" fill-opacity="0.7"/>
</svg>
