<svg width="22" height="22" viewBox="0 0 22 22" fill="none" xmlns="http://www.w3.org/2000/svg">
<path d="M20.1667 0H1.83335C0.806652 0 0 0.806652 0 1.83335V20.1667C0 21.1933 0.806652 22 1.83335 22H10.2667H14.6667H20.1667C21.1933 22 22 21.1933 22 20.1667V1.83335C22 0.806652 21.1933 0 20.1667 0ZM11 21.2667V13.9333H8.06665V11H11V8.43335C11 6.34335 12.6133 4.58335 14.6667 4.4H17.9667V7.33335H15.0333C14.41 7.33335 13.9333 7.81 13.9333 8.43335V11H17.6V13.9333H13.9333V21.2667H11V21.2667ZM21.2667 20.1667C21.2667 20.79 20.79 21.2667 20.1667 21.2667H14.6667V14.6667H18.3333V10.2667H14.6667V8.4333C14.6667 8.2133 14.8133 8.06665 15.0333 8.06665H18.7V3.66665H14.63C12.1733 3.88665 10.2667 5.97665 10.2667 8.4333V10.2667H7.3333V14.6667H10.2667V21.2667H1.83335C1.21 21.2667 0.733348 20.79 0.733348 20.1667V1.83335C0.733348 1.21 1.21 0.733348 1.83335 0.733348H20.1667C20.79 0.733348 21.2667 1.21 21.2667 1.83335V20.1667H21.2667Z" fill="white"/>
</svg>
