<svg width="25" height="24" viewBox="0 0 25 24" fill="none" xmlns="http://www.w3.org/2000/svg">
<path d="M12.7906 23.5243C20.0813 23.1196 25.1857 17.6015 23.8845 10.2695C22.825 4.29973 16.9582 0.301337 11.0248 1.10186C5.00993 1.9133 0.383211 7.46961 1.06715 13.5141C1.71607 18.9591 5.07404 21.5045 7.87515 22.6542C8.52726 22.9219 9.40374 23.3124 9.69985 23.2492C9.99596 23.1859 9.90095 21.5482 9.90095 20.7587C8.0759 21.0385 7.45139 20.3217 7.06357 19.8983C6.62362 19.4179 6.36492 18.924 5.91573 18.1987C5.46654 17.4734 4.65382 17.644 4.56827 17.2244C4.48272 16.8048 6.27926 16.9186 7.56968 18.5044C8.50365 19.6588 9.50058 19.311 10.0363 18.9809C10.0539 18.7975 10.0963 18.5514 10.2004 18.2769C10.3107 17.9859 10.6139 17.8099 10.5663 17.6108C10.5187 17.4117 8.07921 17.5452 6.68807 15.6008C5.68326 14.1963 5.64676 12.534 6.04166 11.2963C6.30652 10.4661 6.74841 9.88061 7.0492 9.54225C6.93388 9.29627 6.76255 8.8472 6.75457 8.26228C6.7459 7.63094 6.93182 7.14774 7.0492 6.89698C7.44751 6.90881 8.02332 6.97025 8.67463 7.20042C9.29845 7.4208 9.76886 7.71718 10.0814 7.9494C10.6489 7.75928 11.4751 7.55244 12.4862 7.53219C13.6423 7.50909 14.5787 7.73914 15.1858 7.93984C15.4842 7.67406 15.9828 7.29724 16.6877 7.03909C17.1998 6.85159 17.6593 6.78548 17.9995 6.76409C18.1299 7.01042 18.3502 7.50579 18.3607 8.16716C18.3704 8.77597 18.1981 9.24461 18.0851 9.49423C18.4122 9.88778 18.9285 10.6178 19.169 11.6554C19.2547 12.025 19.723 14.0425 18.371 15.7786C16.9557 17.596 14.6 17.3173 14.4937 17.5683C14.3874 17.8193 14.9458 18.2847 15.2084 19.2609C15.471 20.2371 15.3598 22.1029 15.3598 22.1029" stroke="white" stroke-width="0.929239" stroke-miterlimit="10" stroke-linecap="round" stroke-linejoin="round"/>
</svg>
