<svg width="22" height="22" viewBox="0 0 22 22" fill="none" xmlns="http://www.w3.org/2000/svg">
<path d="M13.5208 8.75417C11.275 8.75417 9.99167 10.3033 9.99167 12.8517V16.61H10.5417V12.8517C10.5417 10.8533 11.7058 9.67083 13.42 9.67083C15.5833 9.67083 15.5833 11.55 15.5833 12.3933V16.61H16.5V12.3933C16.5 9.8175 15.3908 8.75417 13.5208 8.75417ZM5.95833 16.61H6.875V8.9375H5.95833V16.61ZM9.625 16.61H10.5417V8.9375H9.625V16.61ZM6.41667 7.33333C5.9125 7.33333 5.5 6.92083 5.5 6.41667C5.5 5.9125 5.9125 5.5 6.41667 5.5C6.92083 5.5 7.33333 5.9125 7.33333 6.41667C7.33333 6.92083 6.92083 7.33333 6.41667 7.33333ZM20.13 0H1.87C0.788333 0 0 0.788334 0 1.87V20.13C0 21.2117 0.788333 22 1.87 22H20.13C21.2117 22 22 21.2117 22 20.13V1.87C22 0.788334 21.2117 0 20.13 0ZM21.0833 1.85167V20.1483C21.0833 20.6892 20.6892 21.0833 20.1483 21.0833H1.85167C1.31083 21.0833 0.916667 20.6892 0.916667 20.1483V1.85167C0.916667 1.31083 1.31083 0.916668 1.85167 0.916668H20.1483C20.6892 0.916668 21.0833 1.31083 21.0833 1.85167Z" fill="white"/>
</svg>
