<svg width="19" height="19" viewBox="0 0 19 19" fill="none" xmlns="http://www.w3.org/2000/svg">
<path d="M0.593976 18.7031C0.504914 18.7031 0.445539 18.6734 0.386164 18.6141C0.297101 18.525 0.267414 18.4062 0.326789 18.3172L1.66273 14.2797C0.772101 12.8547 0.297101 11.1922 0.297101 9.5C0.297101 4.42344 4.42366 0.296875 9.50023 0.296875C14.5768 0.296875 18.7034 4.42344 18.7034 9.5C18.7034 14.5766 14.5768 18.7031 9.50023 18.7031C7.80804 18.7031 6.14554 18.2281 4.72054 17.3672L0.683039 18.6734C0.653351 18.7031 0.623664 18.7031 0.593976 18.7031ZM4.75023 16.7437C4.8096 16.7437 4.86898 16.7734 4.89866 16.8031C6.26429 17.6641 7.86741 18.1391 9.50023 18.1391C14.2502 18.1391 18.1096 14.2797 18.1096 9.52969C18.1096 4.77969 14.2502 0.890625 9.50023 0.890625C4.75023 0.890625 0.890851 4.75 0.890851 9.5C0.890851 11.1328 1.36585 12.7359 2.22679 14.1016C2.28616 14.1906 2.28616 14.2797 2.25648 14.3391C2.25648 14.3687 2.22679 14.3984 2.1971 14.4281L1.06898 17.9312L4.66116 16.7437C4.69085 16.7437 4.72054 16.7437 4.75023 16.7437Z" fill="white" fill-opacity="0.7"/>
<path d="M11.8751 14.0421C11.0735 14.0421 10.0641 13.775 8.90631 13.2406C7.30319 12.4984 5.99694 11.3406 5.136 9.88589C4.63131 9.05464 4.36412 8.28276 4.33444 7.57026C4.33444 7.54058 4.186 6.17495 5.49225 5.13589C5.64069 5.01714 5.81881 4.95776 6.02662 4.95776H6.561C6.88756 4.95776 7.21412 5.16558 7.33287 5.46245L8.13444 7.42183C8.25319 7.7187 8.19381 8.07495 7.986 8.31245L7.48131 8.87651C7.42194 8.96558 7.39225 9.08433 7.45162 9.17339C7.48131 9.20308 7.511 9.29214 7.62975 9.44058C8.2235 10.2125 9.02506 10.8359 9.91569 11.2218C10.0641 11.2812 10.1532 11.3109 10.2126 11.3406C10.3016 11.3703 10.4204 11.3406 10.4797 11.2515L10.8954 10.6281C11.0735 10.3609 11.4001 10.2125 11.7266 10.2718L13.8344 10.5984C14.161 10.6578 14.4282 10.8953 14.5172 11.2218L14.636 11.7562C14.6954 11.9343 14.6657 12.1421 14.5766 12.3203C13.8641 13.864 12.5282 14.0421 12.4688 14.0421C12.2907 14.0125 12.0829 14.0421 11.8751 14.0421ZM6.02662 5.55151C5.96725 5.55151 5.90787 5.5812 5.87819 5.61089C4.80944 6.47183 4.92819 7.54058 4.92819 7.54058C4.95787 8.16401 5.19537 8.84683 5.64069 9.58901C6.44225 10.925 7.65944 12.0234 9.14381 12.7062C10.4797 13.3296 11.5782 13.5671 12.3797 13.4187C12.4391 13.4187 13.4782 13.2406 14.0422 12.0234C14.0719 11.964 14.0719 11.9046 14.0422 11.875L13.9532 11.3406C13.9235 11.2515 13.8641 11.1625 13.7454 11.1625L11.6376 10.8359C11.5485 10.8359 11.4594 10.8656 11.4001 10.9546L10.9844 11.5781C10.7766 11.875 10.4204 12.0234 10.0641 11.9343C9.97506 11.9046 9.85631 11.875 9.67819 11.7859C8.6985 11.3406 7.80787 10.6578 7.15475 9.79683C7.036 9.64839 6.97662 9.55933 6.91725 9.47026C6.73912 9.1437 6.7985 8.75776 7.036 8.49058L7.54069 7.92651C7.60006 7.86714 7.62975 7.74839 7.60006 7.65933L6.7985 5.69995C6.76881 5.61089 6.67975 5.55151 6.561 5.55151H6.02662Z" fill="white" fill-opacity="0.7"/>
</svg>
